<svg xmlns="http://www.w3.org/2000/svg" version="1.1" xmlns:xlink="http://www.w3.org/1999/xlink" xmlns:svgjs="http://svgjs.dev/svgjs" viewBox="0 0 6.574191472974602 7.625490787129739"><g transform="matrix(1,0,0,1,0.5897049894169881,4.65439156694352)"><g><path d=" M -0.20700000000000002 1.776 Q -0.222 1.776 -0.23775000000000002 1.7415 Q -0.2535 1.707 -0.2535 1.6560000000000001 Q -0.2535 1.6440000000000001 -0.252 1.6305 Q -0.2505 1.617 -0.2475 1.6035000000000001 Q -0.2295 1.5315 -0.198 1.4415 Q -0.1335 1.2630000000000001 -0.033 1.05 Q -0.0075 0.9990000000000001 0.0165 0.9495 Q 0.0405 0.9 0.0645 0.8520000000000001 Q 0.1125 0.7575000000000001 0.15675 0.675 Q 0.201 0.5925 0.23550000000000001 0.5325000000000001 Q 0.2895 0.44400000000000006 0.33375 0.39825 Q 0.378 0.35250000000000004 0.42 0.3330000000000001 Q 0.462 0.3135 0.5085000000000001 0.3045 L 0.516 0.31800000000000006 Q 0.495 0.3375 0.47175 0.36450000000000005 Q 0.4485 0.39150000000000007 0.423 0.42600000000000005 Q 0.3735 0.4920000000000001 0.3225 0.5730000000000001 Q 0.2715 0.654 0.219 0.7425 Q 0.1935 0.7875000000000001 0.1695 0.83175 Q 0.1455 0.8760000000000001 0.1215 0.9195000000000001 Q 0.0825 0.9930000000000001 0.048 1.062 Q 0.096 0.9765 0.14325000000000002 0.8992500000000001 Q 0.1905 0.8220000000000001 0.228 0.7710000000000001 Q 0.2805 0.7020000000000001 0.33 0.663 Q 0.3795 0.624 0.41400000000000003 0.624 Q 0.4965 0.624 0.4965 0.7185 Q 0.4965 0.738 0.492 0.7635000000000001 Q 0.4815 0.8295000000000001 0.444 0.90225 Q 0.40650000000000003 0.9750000000000001 0.35100000000000003 1.038 Q 0.2955 1.101 0.22875 1.1407500000000002 Q 0.162 1.1805 0.09 1.1805 Q 0.063 1.1805 0.0465 1.1625 Q 0.0045000000000000005 1.245 -0.04125 1.34175 Q -0.08700000000000001 1.4385000000000001 -0.1395 1.56 Q -0.1545 1.6155 -0.168 1.66575 Q -0.1815 1.7160000000000002 -0.1905 1.7550000000000001 Q -0.1965 1.776 -0.20700000000000002 1.776 Z M 0.09 1.1385 Q 0.138 1.1385 0.18825 1.098 Q 0.23850000000000002 1.0575 0.28275 0.9952500000000001 Q 0.327 0.933 0.354 0.8685 Q 0.375 0.8145 0.38625 0.7702500000000001 Q 0.3975 0.726 0.3975 0.7035 Q 0.3975 0.684 0.39 0.684 Q 0.35100000000000003 0.684 0.2715 0.7935000000000001 Q 0.219 0.8685 0.168 0.9487500000000001 Q 0.117 1.0290000000000001 0.0645 1.1295000000000002 Q 0.07200000000000001 1.1385 0.09 1.1385 Z M 0.7679326171875 1.359 Q 0.7349326171875 1.359 0.7116826171875 1.3342500000000002 Q 0.6884326171875 1.3095 0.6929326171875 1.2630000000000001 Q 0.6989326171875 1.215 0.7259326171875 1.1407500000000002 Q 0.7529326171875 1.0665 0.7919326171875001 0.9750000000000001 Q 0.7619326171875 1.0185 0.7251826171875 1.0575 Q 0.6884326171875 1.0965 0.6479326171875 1.12125 Q 0.6074326171875 1.1460000000000001 0.5654326171875 1.1460000000000001 Q 0.4724326171875 1.1460000000000001 0.4724326171875 1.0575 Q 0.4724326171875 1.0515 0.4724326171875 1.0455 Q 0.4724326171875 1.0395 0.4739326171875 1.0335 Q 0.4784326171875 0.996 0.49793261718750004 0.9480000000000001 Q 0.5174326171875 0.9 0.5324326171875 0.8760000000000001 Q 0.5714326171875 0.8145 0.6276826171875001 0.75525 Q 0.6839326171875 0.6960000000000001 0.7476826171875 0.657 Q 0.8114326171875 0.6180000000000001 0.8714326171875 0.6180000000000001 Q 0.9089326171875001 0.6180000000000001 0.9449326171875001 0.633 Q 0.9794326171875001 0.5625 1.0139326171875 0.49950000000000006 Q 1.0484326171875 0.4365 1.0769326171875 0.39 Q 1.1264326171875 0.3045 1.1684326171875 0.25875000000000004 Q 1.2104326171875002 0.21300000000000008 1.2516826171875 0.1935 Q 1.2929326171875002 0.17400000000000004 1.3364326171875 0.16800000000000004 L 1.3439326171875 0.18000000000000005 Q 1.2434326171875 0.3075 1.1654326171875 0.4297500000000001 Q 1.0874326171875 0.552 1.0139326171875 0.6930000000000001 Q 1.0154326171874999 0.6975 1.0154326171874999 0.7065000000000001 Q 1.0154326171874999 0.732 0.9929326171875 0.7365 Q 0.9764326171875001 0.768 0.9524326171874999 0.8175000000000001 Q 0.9284326171875 0.867 0.9021826171875 0.927 Q 0.8759326171875 0.9870000000000001 0.8511826171875001 1.04925 Q 0.8264326171875 1.1115000000000002 0.8099326171875001 1.1655 Q 0.7994326171875 1.203 0.7926826171875 1.2255 Q 0.7859326171875001 1.248 0.7859326171875001 1.26 Q 0.7859326171875001 1.2885 0.8519326171875 1.218 L 0.9224326171875 1.143 Q 0.9389326171875001 1.1265 0.9509326171875 1.113 Q 0.9629326171875 1.0995000000000001 0.9704326171875 1.0905 L 1.0814326171875002 0.9615 Q 1.0964326171875 0.9435 1.1114326171875 0.92625 Q 1.1264326171875 0.909 1.1399326171875002 0.8925000000000001 Q 1.1459326171875 0.885 1.1549326171875 0.885 Q 1.1714326171875 0.885 1.1714326171875 0.903 Q 1.1714326171875 0.912 1.1624326171875001 0.924 Q 1.1474326171875 0.9450000000000001 1.1286826171875002 0.9675 Q 1.1099326171875 0.99 1.0934326171875002 1.0095 Q 1.0889326171875 1.014 1.0679326171875 1.0395 Q 1.0469326171875002 1.065 1.0184326171875 1.10175 Q 0.9899326171875 1.1385 0.9599326171875 1.17825 Q 0.9299326171875 1.218 0.9044326171875 1.2510000000000001 Q 0.8789326171875 1.284 0.8654326171875 1.302 Q 0.8444326171875001 1.3305 0.8181826171875 1.3447500000000001 Q 0.7919326171875001 1.359 0.7679326171875 1.359 Z M 0.5774326171875 1.095 Q 0.5999326171875 1.095 0.6464326171875 1.0575 Q 0.6779326171875 1.0335 0.7176826171875 0.9922500000000001 Q 0.7574326171875001 0.9510000000000001 0.7926826171875 0.9105000000000001 Q 0.8279326171875 0.8700000000000001 0.8444326171875001 0.8475 Q 0.8609326171875 0.804 0.8819326171875 0.75975 Q 0.9029326171875001 0.7155 0.9254326171875 0.669 Q 0.9209326171875001 0.6675 0.9164326171875 0.6667500000000001 Q 0.9119326171875 0.666 0.9074326171875 0.666 Q 0.8699326171875 0.666 0.8219326171875001 0.70125 Q 0.7739326171875001 0.7365 0.7334326171875001 0.78 Q 0.6839326171875 0.8310000000000001 0.6419326171875 0.8925000000000001 Q 0.5999326171875 0.9540000000000001 0.5789326171875 1.008 Q 0.5609326171875 1.05 0.5609326171875 1.074 Q 0.5609326171875 1.095 0.5774326171875 1.095 Z M 1.067857177734375 1.6635 Q 0.986857177734375 1.6635 0.986857177734375 1.5450000000000002 Q 0.986857177734375 1.5165000000000002 0.991357177734375 1.4820000000000002 Q 0.995857177734375 1.4475 1.006357177734375 1.407 Q 1.027357177734375 1.323 1.057357177734375 1.2397500000000001 Q 1.0873571777343751 1.1565 1.123357177734375 1.0755000000000001 Q 1.142857177734375 1.0335 1.1691071777343751 0.9772500000000001 Q 1.195357177734375 0.921 1.223107177734375 0.8632500000000001 Q 1.250857177734375 0.8055000000000001 1.271857177734375 0.762 L 1.255357177734375 0.762 Q 1.229857177734375 0.762 1.229857177734375 0.7470000000000001 Q 1.229857177734375 0.738 1.2403571777343751 0.7297500000000001 Q 1.250857177734375 0.7215 1.270357177734375 0.7215 L 1.288357177734375 0.7215 Q 1.307857177734375 0.681 1.343857177734375 0.6142500000000001 Q 1.379857177734375 0.5475000000000001 1.424857177734375 0.46950000000000003 Q 1.469857177734375 0.39150000000000007 1.514107177734375 0.3157500000000001 Q 1.558357177734375 0.24 1.594357177734375 0.18300000000000005 Q 1.624357177734375 0.13350000000000006 1.6618571777343751 0.09675000000000011 Q 1.699357177734375 0.06000000000000005 1.738357177734375 0.04049999999999998 Q 1.777357177734375 0.02100000000000013 1.808857177734375 0.027000000000000135 L 1.813357177734375 0.039000000000000146 Q 1.777357177734375 0.09000000000000008 1.7218571777343752 0.17325000000000002 Q 1.666357177734375 0.25650000000000006 1.6048571777343752 0.3540000000000001 Q 1.547857177734375 0.4455 1.491607177734375 0.5415000000000001 Q 1.435357177734375 0.6375000000000001 1.394857177734375 0.7215 L 1.565857177734375 0.7215 Q 1.5808571777343752 0.7215 1.5808571777343752 0.7365 Q 1.5808571777343752 0.7455 1.574107177734375 0.75375 Q 1.567357177734375 0.762 1.555357177734375 0.762 L 1.373857177734375 0.762 L 1.349857177734375 0.81 Q 1.360357177734375 0.8415000000000001 1.364107177734375 0.8820000000000001 Q 1.367857177734375 0.9225000000000001 1.367857177734375 0.9675 Q 1.367857177734375 1.0365 1.360357177734375 1.10625 Q 1.352857177734375 1.1760000000000002 1.343857177734375 1.224 Q 1.304857177734375 1.4325 1.232857177734375 1.548 Q 1.160857177734375 1.6635 1.067857177734375 1.6635 Z M 1.084357177734375 1.623 Q 1.118857177734375 1.623 1.163857177734375 1.5517500000000002 Q 1.208857177734375 1.4805000000000001 1.255357177734375 1.356 Q 1.271857177734375 1.3095 1.2868571777343751 1.24125 Q 1.301857177734375 1.173 1.311607177734375 1.09725 Q 1.321357177734375 1.0215 1.321357177734375 0.9540000000000001 Q 1.321357177734375 0.9345000000000001 1.320607177734375 0.9157500000000001 Q 1.319857177734375 0.897 1.318357177734375 0.879 L 1.264357177734375 0.9975 Q 1.2283571777343751 1.077 1.191607177734375 1.1625 Q 1.154857177734375 1.248 1.124857177734375 1.332 Q 1.109857177734375 1.374 1.097857177734375 1.4115000000000002 Q 1.085857177734375 1.449 1.076857177734375 1.4820000000000002 Q 1.061857177734375 1.5405000000000002 1.061857177734375 1.578 Q 1.061857177734375 1.62 1.084357177734375 1.623 Z M 1.7967685546875 1.4040000000000001 Q 1.7592685546875 1.4040000000000001 1.7390185546875 1.3747500000000001 Q 1.7187685546875 1.3455000000000001 1.7187685546875 1.2945 Q 1.7187685546875 1.2825 1.7202685546875 1.2675 Q 1.7217685546875001 1.2525 1.7247685546875 1.2375 Q 1.7502685546875 1.0995000000000001 1.8020185546875 0.9480000000000001 Q 1.8537685546875 0.7965 1.9317685546875 0.6465000000000001 Q 1.8897685546875 0.66 1.8545185546875 0.666 Q 1.8192685546875 0.672 1.7907685546875 0.672 Q 1.7577685546875002 0.672 1.7427685546875 0.6637500000000001 Q 1.7277685546875001 0.6555 1.7277685546875001 0.6480000000000001 Q 1.7277685546875001 0.633 1.7577685546875002 0.633 Q 1.7652685546875 0.633 1.7727685546875 0.63375 Q 1.7802685546875001 0.6345000000000001 1.7862685546875001 0.6345000000000001 Q 1.8537685546875 0.6345000000000001 1.9572685546875 0.5940000000000001 Q 2.0442685546875 0.4365 2.1432685546875 0.30525 Q 2.2422685546875 0.17400000000000004 2.3487685546875 0.07650000000000001 Q 2.3922685546875 0.03750000000000009 2.4335185546875002 0.018750000000000044 Q 2.4747685546875 0 2.5077685546875 0 Q 2.5467685546875 0 2.5730185546875 0.026250000000000107 Q 2.5992685546875 0.05249999999999999 2.5992685546875 0.1080000000000001 Q 2.5992685546875 0.138 2.5857685546875 0.1725000000000001 Q 2.5467685546875 0.27 2.4327685546875 0.366 Q 2.4042685546875 0.39 2.3742685546875 0.4125000000000001 Q 2.3442685546875 0.43500000000000005 2.3142685546875 0.45600000000000007 Q 2.2512685546875 0.498 2.1830185546875 0.5355000000000001 Q 2.1147685546875 0.5730000000000001 2.0487685546875003 0.6000000000000001 Q 1.9467685546875 0.7770000000000001 1.8867685546875002 0.9450000000000001 Q 1.8222685546875002 1.1295000000000002 1.8192685546875 1.26 Q 1.8192685546875 1.32 1.8462685546875 1.32 Q 1.8552685546875 1.32 1.8657685546875 1.3155000000000001 Q 1.8762685546875 1.311 1.8912685546875 1.3050000000000002 Q 1.9362685546875 1.278 1.9692685546875 1.2495 Q 2.0022685546875 1.221 2.0352685546875002 1.1835 Q 2.0472685546875002 1.1700000000000002 2.0660185546875 1.1475 Q 2.0847685546875 1.125 2.1072685546875 1.0965 Q 2.1342685546875 1.0635000000000001 2.1635185546875 1.0275 Q 2.1927685546875 0.9915 2.2182685546875 0.9615 Q 2.2482685546875 0.9255 2.2782685546875 0.8925000000000001 Q 2.2842685546875003 0.885 2.2917685546875 0.885 Q 2.3097685546875 0.885 2.3097685546875 0.9045000000000001 Q 2.3097685546875 0.915 2.3007685546875 0.924 Q 2.2842685546875003 0.9450000000000001 2.2655185546875 0.9675 Q 2.2467685546875003 0.99 2.2302685546875 1.0095 Q 2.2212685546875 1.02 2.1950185546875 1.05075 Q 2.1687685546875 1.0815000000000001 2.1342685546875 1.1235000000000002 Q 2.1027685546875 1.161 2.0690185546875 1.20225 Q 2.0352685546875002 1.2435 2.0067685546875 1.2765 Q 1.9782685546875 1.3095 1.9602685546875 1.3275000000000001 Q 1.8792685546875 1.4040000000000001 1.7967685546875 1.4040000000000001 Z M 2.4747685546875 0.06899999999999995 Q 2.3817685546875 0.14250000000000007 2.2805185546875 0.264 Q 2.1792685546875 0.38550000000000006 2.0877685546875 0.5355000000000001 Q 2.1582685546875 0.49950000000000006 2.2310185546875 0.4507500000000001 Q 2.3037685546875 0.402 2.3682685546875 0.34650000000000003 Q 2.4327685546875 0.29100000000000004 2.4792685546875 0.23325000000000007 Q 2.5257685546875 0.1755 2.5437685546875 0.12149999999999994 Q 2.5497685546875 0.10350000000000015 2.5497685546875 0.08699999999999997 Q 2.5497685546875 0.0495000000000001 2.5197685546875 0.0495000000000001 Q 2.4987685546875 0.0495000000000001 2.4747685546875 0.06899999999999995 Z M 2.399715087890625 1.1460000000000001 Q 2.344215087890625 1.1460000000000001 2.308965087890625 1.0995000000000001 Q 2.273715087890625 1.0530000000000002 2.273715087890625 0.9840000000000001 Q 2.273715087890625 0.927 2.2917150878906254 0.8760000000000001 Q 2.327715087890625 0.7770000000000001 2.411715087890625 0.6885000000000001 Q 2.471715087890625 0.6285000000000001 2.5369650878906254 0.59175 Q 2.602215087890625 0.555 2.6532150878906253 0.555 Q 2.696715087890625 0.555 2.7229650878906253 0.5775 Q 2.749215087890625 0.6000000000000001 2.749215087890625 0.6315000000000001 Q 2.749215087890625 0.645 2.741715087890625 0.6645000000000001 Q 2.7582150878906253 0.666 2.773215087890625 0.6667500000000001 Q 2.788215087890625 0.6675 2.8032150878906252 0.6675 Q 2.833215087890625 0.6675 2.8624650878906253 0.6645000000000001 Q 2.891715087890625 0.6615 2.918715087890625 0.6555 L 2.9262150878906255 0.6555 Q 2.9457150878906253 0.6555 2.9457150878906253 0.669 Q 2.9457150878906253 0.6795 2.927715087890625 0.687 Q 2.912715087890625 0.6930000000000001 2.8789650878906254 0.6990000000000001 Q 2.845215087890625 0.7050000000000001 2.8069650878906254 0.70875 Q 2.7687150878906253 0.7125000000000001 2.738715087890625 0.7125000000000001 Q 2.728215087890625 0.7125000000000001 2.719965087890625 0.7125000000000001 Q 2.7117150878906253 0.7125000000000001 2.705715087890625 0.7110000000000001 L 2.6997150878906253 0.7140000000000001 Q 2.7147150878906254 0.738 2.7147150878906254 0.7815000000000001 Q 2.7147150878906254 0.8415000000000001 2.685465087890625 0.9052500000000001 Q 2.656215087890625 0.9690000000000001 2.608965087890625 1.0237500000000002 Q 2.561715087890625 1.0785 2.506215087890625 1.11225 Q 2.450715087890625 1.1460000000000001 2.399715087890625 1.1460000000000001 Z M 2.413215087890625 1.095 Q 2.4522150878906253 1.095 2.4897150878906253 1.0665 Q 2.5272150878906254 1.038 2.5587150878906253 0.9915 Q 2.590215087890625 0.9450000000000001 2.611965087890625 0.891 Q 2.633715087890625 0.8370000000000001 2.6397150878906253 0.7875000000000001 Q 2.6412150878906253 0.7785000000000001 2.6412150878906253 0.7702500000000001 Q 2.6412150878906253 0.762 2.6412150878906253 0.756 Q 2.6412150878906253 0.7335 2.636715087890625 0.72 L 2.633715087890625 0.72 Q 2.614215087890625 0.7155 2.6052150878906253 0.71025 Q 2.5962150878906254 0.7050000000000001 2.587215087890625 0.6960000000000001 L 2.585715087890625 0.6945000000000001 Q 2.579715087890625 0.6885000000000001 2.578965087890625 0.6832500000000001 Q 2.578215087890625 0.678 2.578215087890625 0.672 Q 2.578215087890625 0.6585000000000001 2.588715087890625 0.65025 Q 2.599215087890625 0.6420000000000001 2.614215087890625 0.645 L 2.6892150878906254 0.6585000000000001 Q 2.7012150878906254 0.6345000000000001 2.7012150878906254 0.621 Q 2.7012150878906254 0.5910000000000001 2.6547150878906254 0.5910000000000001 Q 2.614215087890625 0.5910000000000001 2.566965087890625 0.6322500000000001 Q 2.519715087890625 0.6735 2.4769650878906253 0.7342500000000001 Q 2.434215087890625 0.795 2.402715087890625 0.855 Q 2.387715087890625 0.885 2.377215087890625 0.9277500000000001 Q 2.366715087890625 0.9705 2.366715087890625 1.0095 Q 2.366715087890625 1.0455 2.377965087890625 1.0702500000000001 Q 2.389215087890625 1.095 2.413215087890625 1.095 Z M 2.90363525390625 1.185 Q 2.84363525390625 1.185 2.8106352539062502 1.14825 Q 2.7776352539062503 1.1115000000000002 2.7776352539062503 1.0425 Q 2.7776352539062503 0.9990000000000001 2.7888852539062503 0.9465000000000001 Q 2.8001352539062503 0.894 2.8173852539062505 0.84375 Q 2.8346352539062503 0.7935000000000001 2.8526352539062505 0.7605000000000001 Q 2.8826352539062503 0.6975 2.92463525390625 0.63375 Q 2.9666352539062504 0.5700000000000001 3.0161352539062505 0.51675 Q 3.06563525390625 0.4635 3.1181352539062503 0.4305 Q 3.17063525390625 0.3975000000000001 3.2216352539062503 0.3975000000000001 Q 3.2651352539062506 0.3975000000000001 3.2913852539062503 0.4305 Q 3.3176352539062504 0.4635 3.3176352539062504 0.507 Q 3.3176352539062504 0.5505000000000001 3.2906352539062502 0.5895 Q 3.26663525390625 0.627 3.2441352539062502 0.64575 Q 3.2216352539062503 0.6645000000000001 3.2096352539062503 0.6645000000000001 Q 3.1976352539062503 0.6645000000000001 3.1976352539062503 0.6480000000000001 Q 3.1976352539062503 0.6405000000000001 3.2006352539062504 0.6285000000000001 Q 3.2036352539062505 0.6165 3.2096352539062503 0.6015 Q 3.2156352539062505 0.5880000000000001 3.2238852539062504 0.5647500000000001 Q 3.2321352539062502 0.5415000000000001 3.2396352539062505 0.5145000000000001 Q 3.2471352539062504 0.48750000000000004 3.2456352539062503 0.4680000000000001 Q 3.2171352539062505 0.4635 3.1803852539062505 0.4882500000000001 Q 3.1436352539062504 0.513 3.1061352539062503 0.5527500000000001 Q 3.0686352539062502 0.5925 3.0356352539062503 0.6375000000000001 Q 3.0026352539062504 0.6825000000000001 2.9816352539062505 0.7215 Q 2.9651352539062503 0.75 2.9456352539062505 0.7935000000000001 Q 2.92613525390625 0.8370000000000001 2.9096352539062504 0.8835000000000001 Q 2.8931352539062503 0.93 2.8826352539062503 0.9690000000000001 Q 2.87663525390625 0.9930000000000001 2.8736352539062504 1.01325 Q 2.8706352539062503 1.0335 2.8706352539062503 1.05 Q 2.8706352539062503 1.1205 2.9216352539062505 1.1205 Q 3.0461352539062503 1.1205 3.19613525390625 0.9615 Q 3.22913525390625 0.9285000000000001 3.25163525390625 0.897 Q 3.2561352539062502 0.8895000000000001 3.2636352539062505 0.8895000000000001 Q 3.2816352539062503 0.8895000000000001 3.2816352539062503 0.9105000000000001 Q 3.2816352539062503 0.921 3.27413525390625 0.9285000000000001 L 3.20813525390625 1.0065 Q 3.1751352539062503 1.0455 3.12488525390625 1.08675 Q 3.0746352539062505 1.1280000000000001 3.01688525390625 1.1565 Q 2.9591352539062505 1.185 2.90363525390625 1.185 Z M 3.5830605468750005 1.1460000000000001 Q 3.5530605468750003 1.1460000000000001 3.5343105468750005 1.1235000000000002 Q 3.515560546875 1.101 3.515560546875 1.0605 Q 3.515560546875 1.032 3.5245605468750005 0.9990000000000001 Q 3.5275605468750006 0.9870000000000001 3.5403105468750002 0.9577500000000001 Q 3.5530605468750003 0.9285000000000001 3.5665605468750003 0.8985000000000001 Q 3.5710605468750005 0.891 3.5740605468750006 0.8835000000000001 Q 3.5305605468750003 0.9405000000000001 3.4780605468750005 0.98475 Q 3.4255605468750003 1.0290000000000001 3.3670605468750003 1.0290000000000001 Q 3.3160605468750006 1.0275 3.2950605468750003 1.00125 Q 3.2740605468750004 0.9750000000000001 3.2740605468750004 0.9375 Q 3.2740605468750004 0.8955000000000001 3.2928105468750006 0.8460000000000001 Q 3.3115605468750005 0.7965 3.3340605468750004 0.7590000000000001 Q 3.3730605468750006 0.6975 3.4293105468750005 0.63825 Q 3.4855605468750004 0.5790000000000001 3.5500605468750006 0.54 Q 3.6145605468750004 0.501 3.6730605468750004 0.501 Q 3.7390605468750007 0.501 3.7930605468750005 0.5445000000000001 Q 3.8065605468750006 0.555 3.8118105468750003 0.5670000000000001 Q 3.8170605468750005 0.5790000000000001 3.8170605468750005 0.5880000000000001 Q 3.8170605468750005 0.6015 3.8095605468750007 0.6105 Q 3.8020605468750004 0.6195 3.7915605468750004 0.6195 Q 3.7750605468750003 0.6195 3.7660605468750004 0.5955 Q 3.7570605468750005 0.5700000000000001 3.7420605468750003 0.5595 Q 3.727060546875 0.549 3.7090605468750004 0.549 Q 3.6730605468750004 0.549 3.6265605468750004 0.5820000000000001 Q 3.5800605468750004 0.6150000000000001 3.5350605468750005 0.663 Q 3.4825605468750003 0.7155 3.4428105468750005 0.77775 Q 3.4030605468750004 0.8400000000000001 3.3820605468750005 0.891 Q 3.3625605468750006 0.9345000000000001 3.3625605468750006 0.9570000000000001 Q 3.3625605468750006 0.9780000000000001 3.3790605468750003 0.9780000000000001 Q 3.4015605468750003 0.9780000000000001 3.4480605468750003 0.9405000000000001 Q 3.4810605468750007 0.915 3.5193105468750003 0.8745 Q 3.5575605468750005 0.8340000000000001 3.5920605468750004 0.7935000000000001 Q 3.6265605468750004 0.7530000000000001 3.6460605468750003 0.7305 Q 3.6535605468750005 0.7185 3.6603105468750003 0.7080000000000001 Q 3.6670605468750006 0.6975 3.6730605468750004 0.6900000000000001 Q 3.6895605468750006 0.6675 3.7240605468750005 0.6675 Q 3.7465605468750005 0.6675 3.7623105468750007 0.678 Q 3.7780605468750004 0.6885000000000001 3.7705605468750005 0.7065000000000001 Q 3.7660605468750004 0.7140000000000001 3.7585605468750005 0.7282500000000001 Q 3.7510605468750002 0.7425 3.7405605468750003 0.7635000000000001 Q 3.7210605468750004 0.7995000000000001 3.6970605468750004 0.8475 Q 3.6730605468750004 0.8955000000000001 3.6520605468750005 0.9375 Q 3.6310605468750006 0.9795 3.6205605468750006 1.0035 Q 3.5980605468750007 1.0485 3.5980605468750007 1.068 Q 3.5980605468750007 1.0815000000000001 3.6085605468750006 1.0815000000000001 Q 3.6130605468750003 1.0815000000000001 3.6198105468750006 1.0785 Q 3.6265605468750004 1.0755000000000001 3.6355605468750003 1.0710000000000002 Q 3.6625605468750004 1.056 3.6940605468750003 1.0290000000000001 Q 3.7255605468750006 1.002 3.7615605468750006 0.9600000000000001 Q 3.7780605468750004 0.9435 3.7915605468750004 0.9277500000000001 Q 3.8050605468750005 0.912 3.8170605468750005 0.897 Q 3.8215605468750002 0.8895000000000001 3.8290605468750005 0.8895000000000001 Q 3.8470605468750003 0.8895000000000001 3.8470605468750003 0.9105000000000001 Q 3.8470605468750003 0.921 3.8395605468750005 0.9285000000000001 Q 3.8230605468750003 0.9495 3.8065605468750006 0.9690000000000001 Q 3.7900605468750004 0.9885 3.7720605468750006 1.008 Q 3.7555605468750004 1.0275 3.7383105468750006 1.0470000000000002 Q 3.7210605468750004 1.0665 3.7015605468750006 1.083 Q 3.6685605468750007 1.116 3.6378105468750004 1.131 Q 3.6070605468750006 1.1460000000000001 3.5830605468750005 1.1460000000000001 Z M 3.8305107421875007 1.4040000000000001 Q 3.7930107421875006 1.4040000000000001 3.7727607421875007 1.3747500000000001 Q 3.7525107421875004 1.3455000000000001 3.7525107421875004 1.2945 Q 3.7525107421875004 1.2825 3.7540107421875004 1.2675 Q 3.7555107421875005 1.2525 3.7585107421875006 1.2375 Q 3.7600107421875006 1.2345000000000002 3.7607607421875007 1.2277500000000001 Q 3.7615107421875007 1.221 3.7630107421875008 1.215 Q 3.7675107421875005 1.1925000000000001 3.7750107421875008 1.1580000000000001 Q 3.7825107421875006 1.1235000000000002 3.7915107421875005 1.0905 Q 3.8050107421875006 1.0335 3.8297607421875006 0.96225 Q 3.8545107421875007 0.891 3.8875107421875006 0.8115000000000001 Q 3.9130107421875007 0.7515000000000001 3.9385107421875007 0.69825 Q 3.9640107421875004 0.645 3.9895107421875005 0.5955 L 3.7945107421875006 0.5955 Q 3.7705107421875006 0.5955 3.7705107421875006 0.5820000000000001 Q 3.7705107421875006 0.5565 3.8110107421875004 0.5565 L 4.010510742187501 0.5565 Q 4.0480107421875005 0.49050000000000005 4.0885107421875 0.4305 Q 4.129010742187501 0.37050000000000005 4.177010742187501 0.3195 Q 4.2040107421875 0.28800000000000003 4.2272607421875 0.27525 Q 4.250510742187501 0.26250000000000007 4.2737607421875 0.2572500000000001 Q 4.297010742187501 0.252 4.3255107421875 0.246 L 4.333010742187501 0.258 Q 4.268510742187501 0.3375 4.217510742187501 0.4095000000000001 Q 4.1665107421875005 0.48150000000000004 4.123010742187501 0.5565 L 4.3315107421875005 0.5565 Q 4.357010742187501 0.5565 4.357010742187501 0.5715 Q 4.357010742187501 0.5790000000000001 4.3457607421875 0.58725 Q 4.334510742187501 0.5955 4.316510742187501 0.5955 L 4.100510742187501 0.5955 Q 4.0660107421875 0.657 4.033010742187501 0.726 Q 4.0000107421875 0.795 3.9640107421875004 0.8760000000000001 Q 3.9325107421875005 0.9450000000000001 3.9070107421875004 1.0237500000000002 Q 3.8815107421875004 1.1025 3.8672607421875007 1.167 Q 3.8530107421875006 1.2315 3.8530107421875006 1.26 Q 3.8530107421875006 1.3215000000000001 3.8830107421875004 1.3215000000000001 Q 3.8980107421875005 1.3215000000000001 3.9235107421875006 1.3050000000000002 Q 3.9820107421875006 1.2690000000000001 4.027760742187501 1.23075 Q 4.0735107421875005 1.1925000000000001 4.1155107421875 1.1520000000000001 Q 4.145510742187501 1.1235000000000002 4.1860107421875 1.07925 Q 4.2265107421875 1.0350000000000001 4.2610107421875005 0.9975 Q 4.268510742187501 0.99 4.2745107421875 0.9825 Q 4.2805107421875 0.9750000000000001 4.286510742187501 0.9690000000000001 L 4.312010742187501 0.9405000000000001 Q 4.318010742187501 0.9345000000000001 4.3255107421875 0.9345000000000001 Q 4.343510742187501 0.9345000000000001 4.343510742187501 0.9525000000000001 Q 4.343510742187501 0.9600000000000001 4.334510742187501 0.9720000000000001 Q 4.3255107421875 0.9855 4.316510742187501 0.9945 L 4.2985107421875 1.0170000000000001 Q 4.2340107421875 1.098 4.156010742187501 1.179 Q 4.078010742187501 1.26 3.9940107421875006 1.3275000000000001 Q 3.9595107421875007 1.3545 3.9212607421875005 1.37925 Q 3.8830107421875004 1.4040000000000001 3.8305107421875007 1.4040000000000001 Z M 4.4679243164062505 1.1460000000000001 Q 4.412424316406251 1.1460000000000001 4.377174316406251 1.0995000000000001 Q 4.341924316406251 1.0530000000000002 4.341924316406251 0.9840000000000001 Q 4.341924316406251 0.927 4.359924316406251 0.8760000000000001 Q 4.3959243164062505 0.7770000000000001 4.479924316406251 0.6885000000000001 Q 4.539924316406251 0.6285000000000001 4.60517431640625 0.59175 Q 4.670424316406251 0.555 4.72142431640625 0.555 Q 4.764924316406251 0.555 4.79117431640625 0.5775 Q 4.8174243164062505 0.6000000000000001 4.8174243164062505 0.6315000000000001 Q 4.8174243164062505 0.645 4.809924316406251 0.6645000000000001 Q 4.826424316406251 0.666 4.8414243164062505 0.6667500000000001 Q 4.856424316406251 0.6675 4.871424316406251 0.6675 Q 4.901424316406251 0.6675 4.93067431640625 0.6645000000000001 Q 4.9599243164062505 0.6615 4.986924316406251 0.6555 L 4.994424316406251 0.6555 Q 5.013924316406251 0.6555 5.013924316406251 0.669 Q 5.013924316406251 0.6795 4.995924316406251 0.687 Q 4.98092431640625 0.6930000000000001 4.947174316406251 0.6990000000000001 Q 4.9134243164062505 0.7050000000000001 4.875174316406251 0.70875 Q 4.83692431640625 0.7125000000000001 4.806924316406251 0.7125000000000001 Q 4.7964243164062506 0.7125000000000001 4.78817431640625 0.7125000000000001 Q 4.779924316406251 0.7125000000000001 4.773924316406251 0.7110000000000001 L 4.76792431640625 0.7140000000000001 Q 4.782924316406251 0.738 4.782924316406251 0.7815000000000001 Q 4.782924316406251 0.8415000000000001 4.753674316406251 0.9052500000000001 Q 4.7244243164062505 0.9690000000000001 4.6771743164062505 1.0237500000000002 Q 4.6299243164062505 1.0785 4.574424316406251 1.11225 Q 4.518924316406251 1.1460000000000001 4.4679243164062505 1.1460000000000001 Z M 4.481424316406251 1.095 Q 4.520424316406251 1.095 4.55792431640625 1.0665 Q 4.595424316406251 1.038 4.62692431640625 0.9915 Q 4.658424316406251 0.9450000000000001 4.680174316406251 0.891 Q 4.7019243164062505 0.8370000000000001 4.707924316406251 0.7875000000000001 Q 4.709424316406251 0.7785000000000001 4.709424316406251 0.7702500000000001 Q 4.709424316406251 0.762 4.709424316406251 0.756 Q 4.709424316406251 0.7335 4.704924316406251 0.72 L 4.7019243164062505 0.72 Q 4.682424316406251 0.7155 4.67342431640625 0.71025 Q 4.664424316406251 0.7050000000000001 4.6554243164062505 0.6960000000000001 L 4.6539243164062505 0.6945000000000001 Q 4.64792431640625 0.6885000000000001 4.64717431640625 0.6832500000000001 Q 4.646424316406251 0.678 4.646424316406251 0.672 Q 4.646424316406251 0.6585000000000001 4.656924316406251 0.65025 Q 4.667424316406251 0.6420000000000001 4.682424316406251 0.645 L 4.757424316406251 0.6585000000000001 Q 4.76942431640625 0.6345000000000001 4.76942431640625 0.621 Q 4.76942431640625 0.5910000000000001 4.72292431640625 0.5910000000000001 Q 4.682424316406251 0.5910000000000001 4.635174316406251 0.6322500000000001 Q 4.587924316406251 0.6735 4.545174316406251 0.7342500000000001 Q 4.502424316406251 0.795 4.470924316406251 0.855 Q 4.455924316406251 0.885 4.445424316406251 0.9277500000000001 Q 4.434924316406251 0.9705 4.434924316406251 1.0095 Q 4.434924316406251 1.0455 4.446174316406251 1.0702500000000001 Q 4.457424316406251 1.095 4.481424316406251 1.095 Z M 4.964344482421875 1.3920000000000001 Q 4.869844482421875 1.3920000000000001 4.869844482421875 1.3005 Q 4.869844482421875 1.2750000000000001 4.878844482421876 1.242 Q 4.892344482421875 1.1895 4.921594482421876 1.1295000000000002 Q 4.950844482421875 1.0695000000000001 4.973344482421876 1.0350000000000001 Q 4.991344482421876 1.008 5.009344482421875 0.9795 Q 5.027344482421875 0.9510000000000001 5.046844482421875 0.921 L 5.120344482421875 0.804 Q 5.139844482421875 0.7710000000000001 5.139844482421875 0.7425 Q 5.139844482421875 0.7095 5.114344482421876 0.6930000000000001 L 5.093344482421875 0.6795 L 5.081344482421875 0.672 L 5.064844482421876 0.6990000000000001 Q 5.054344482421875 0.7170000000000001 5.043844482421876 0.732 Q 5.0123444824218755 0.7755000000000001 4.971844482421876 0.8280000000000001 Q 4.931344482421875 0.8805000000000001 4.893844482421875 0.9285000000000001 Q 4.856344482421876 0.9765 4.830844482421876 1.0050000000000001 Q 4.823344482421875 1.0125000000000002 4.815844482421875 1.0125000000000002 Q 4.808344482421876 1.0125000000000002 4.8015944824218755 1.0057500000000001 Q 4.794844482421875 0.9990000000000001 4.794844482421875 0.9915 Q 4.794844482421875 0.9855 4.8008444824218754 0.9795 Q 4.859344482421875 0.9135000000000001 4.914094482421875 0.8445 Q 4.968844482421876 0.7755000000000001 5.0138444824218755 0.6975 L 5.030344482421875 0.669 L 5.046844482421875 0.6420000000000001 Q 5.034844482421875 0.6315000000000001 5.025094482421875 0.6112500000000001 Q 5.015344482421876 0.5910000000000001 5.015344482421876 0.5730000000000001 Q 5.015344482421876 0.5595 5.021344482421876 0.549 Q 5.027344482421875 0.5385000000000001 5.042344482421876 0.537 L 5.045344482421875 0.537 Q 5.066344482421876 0.537 5.079844482421875 0.558 Q 5.096344482421875 0.5790000000000001 5.096344482421875 0.6360000000000001 Q 5.115844482421875 0.6495000000000001 5.135344482421876 0.657 Q 5.1548444824218755 0.6645000000000001 5.171344482421875 0.6705000000000001 Q 5.2013444824218755 0.681 5.2230944824218755 0.6945000000000001 Q 5.244844482421875 0.7080000000000001 5.244844482421875 0.7455 Q 5.244844482421875 0.7515000000000001 5.244094482421875 0.75975 Q 5.243344482421875 0.768 5.241844482421875 0.7755000000000001 Q 5.235844482421875 0.8055000000000001 5.212594482421875 0.8482500000000001 Q 5.189344482421875 0.891 5.159344482421876 0.9367500000000001 Q 5.1293444824218755 0.9825 5.100844482421875 1.0230000000000001 Q 5.091844482421875 1.0350000000000001 5.0843444824218755 1.0462500000000001 Q 5.076844482421875 1.0575 5.069344482421875 1.0695000000000001 Q 4.940344482421875 1.278 4.952344482421875 1.3305 Q 4.955344482421875 1.3395000000000001 4.9658444824218755 1.3395000000000001 Q 4.9883444824218754 1.3395000000000001 5.019844482421876 1.3215000000000001 Q 5.064844482421876 1.296 5.103844482421875 1.26525 Q 5.142844482421875 1.2345000000000002 5.184844482421875 1.191 Q 5.214844482421875 1.1625 5.262844482421875 1.107 Q 5.310844482421875 1.0515 5.357344482421875 0.9990000000000001 Q 5.3648444824218755 0.9885 5.373094482421875 0.9795 Q 5.381344482421875 0.9705 5.3888444824218755 0.9615 Q 5.400844482421875 0.9435 5.418844482421875 0.9255 L 5.448844482421875 0.8925000000000001 Q 5.454844482421875 0.885 5.462344482421876 0.885 Q 5.478844482421875 0.885 5.478844482421875 0.903 Q 5.478844482421875 0.912 5.469844482421875 0.924 Q 5.454844482421875 0.9450000000000001 5.4360944824218755 0.9675 Q 5.417344482421876 0.99 5.400844482421875 1.0095 Q 5.385844482421875 1.0275 5.368594482421876 1.0470000000000002 Q 5.351344482421875 1.0665 5.334844482421875 1.0875000000000001 Q 5.283844482421875 1.1475 5.229844482421876 1.20975 Q 5.1758444824218754 1.272 5.127844482421875 1.3155000000000001 Q 5.093344482421875 1.3455000000000001 5.055094482421875 1.3687500000000001 Q 5.016844482421876 1.3920000000000001 4.964344482421875 1.3920000000000001 Z" fill="#102036" fill-rule="nonzero"></path></g><g><path d=" M 0.027692307692307697 2.105394230769231 L 0.027692307692307697 2.0961634615384614 L 0.06403846153846154 2.077701923076923 L 0.06403846153846154 1.7730865384615386 L 0.029423076923076927 1.7430865384615386 L 0.029423076923076927 1.739048076923077 L 0.10096153846153848 1.7073173076923078 L 0.10442307692307694 1.7073173076923078 L 0.10903846153846154 1.7425096153846154 L 0.11307692307692309 1.7425096153846154 Q 0.135 1.724048076923077 0.1551923076923077 1.7156826923076924 Q 0.1753846153846154 1.7073173076923078 0.19903846153846155 1.7073173076923078 Q 0.2284615384615385 1.7073173076923078 0.25096153846153846 1.7223173076923077 Q 0.2734615384615385 1.7373173076923076 0.2864423076923077 1.7647211538461538 Q 0.29942307692307696 1.792125 0.29942307692307696 1.830201923076923 Q 0.29942307692307696 1.8775096153846154 0.2818269230769231 1.9106826923076923 Q 0.26423076923076927 1.9438557692307694 0.23423076923076924 1.9611634615384617 Q 0.20423076923076924 1.978471153846154 0.16846153846153847 1.978471153846154 Q 0.13615384615384615 1.978471153846154 0.1101923076923077 1.9727019230769232 L 0.1101923076923077 2.077701923076923 L 0.15115384615384617 2.0961634615384614 L 0.15115384615384617 2.105394230769231 L 0.027692307692307697 2.105394230769231 Z M 0.16730769230769232 1.747125 Q 0.15346153846153848 1.747125 0.13875 1.7514519230769232 Q 0.12403846153846156 1.7557788461538462 0.1101923076923077 1.7644326923076923 L 0.1101923076923077 1.926548076923077 Q 0.1275 1.9403942307692308 0.1453846153846154 1.9455865384615385 Q 0.16326923076923078 1.9507788461538462 0.1851923076923077 1.9507788461538462 Q 0.2128846153846154 1.9507788461538462 0.2330769230769231 1.9274134615384617 Q 0.2532692307692308 1.904048076923077 0.2532692307692308 1.8492403846153846 Q 0.2532692307692308 1.8134711538461539 0.24173076923076925 1.790971153846154 Q 0.23019230769230772 1.768471153846154 0.2105769230769231 1.757798076923077 Q 0.1909615384615385 1.747125 0.16730769230769232 1.747125 Z M 0.4614804311899039 1.978471153846154 Q 0.43263427734375004 1.978471153846154 0.4098458158052885 1.964048076923077 Q 0.38705735426682697 1.9496250000000002 0.37407658503605773 1.923375 Q 0.3610958158052885 1.8971250000000002 0.3610958158052885 1.8607788461538461 Q 0.3610958158052885 1.8117403846153848 0.38013427734375005 1.7774134615384616 Q 0.39917273888221155 1.7430865384615386 0.4309035081129808 1.725201923076923 Q 0.46263427734375007 1.7073173076923078 0.50013427734375 1.7073173076923078 Q 0.5162881234975962 1.7073173076923078 0.5284035081129808 1.7087596153846154 Q 0.5405188927283654 1.7102019230769232 0.5503265850360577 1.7125096153846155 L 0.5503265850360577 1.6057788461538463 L 0.5128265850360577 1.5757788461538462 L 0.5128265850360577 1.5717403846153846 L 0.5930188927283655 1.5400096153846154 L 0.5964804311899039 1.5400096153846154 L 0.5964804311899039 1.9467403846153848 L 0.6374419696514424 1.963471153846154 L 0.6374419696514424 1.9727019230769232 L 0.5560958158052884 1.9727019230769232 L 0.5514804311899039 1.9432788461538462 L 0.5474419696514423 1.9432788461538462 Q 0.5255188927283654 1.9617403846153847 0.5050381234975962 1.9701057692307693 Q 0.48455735426682695 1.978471153846154 0.4614804311899039 1.978471153846154 Z M 0.40724966195913465 1.8475096153846153 Q 0.40724966195913465 1.8953942307692309 0.43263427734375004 1.9170288461538463 Q 0.45801889272836543 1.9386634615384617 0.4932112004206731 1.9386634615384617 Q 0.507057354266827 1.9386634615384617 0.5217688927283655 1.9343365384615385 Q 0.5364804311899039 1.9300096153846154 0.5503265850360577 1.9213557692307692 L 0.5503265850360577 1.7598173076923078 Q 0.5364804311899039 1.747701923076923 0.5229227388822115 1.7416442307692308 Q 0.5093650465745192 1.7355865384615385 0.49263427734375004 1.7355865384615385 Q 0.469557354266827 1.7355865384615385 0.45023043118990386 1.7468365384615385 Q 0.4309035081129808 1.7580865384615385 0.4190765850360577 1.7826057692307693 Q 0.40724966195913465 1.807125 0.40724966195913465 1.8475096153846153 Z M 0.6951111778846154 1.9727019230769232 L 0.6951111778846154 1.963471153846154 L 0.7314573317307692 1.9450096153846155 L 0.7314573317307692 1.7402019230769232 L 0.6864573317307692 1.7402019230769232 L 0.6864573317307692 1.7130865384615386 L 0.7314573317307692 1.7130865384615386 L 0.7314573317307692 1.6900096153846154 Q 0.7314573317307692 1.6784711538461539 0.7372265625 1.6600096153846153 Q 0.7429957932692307 1.641548076923077 0.7542457932692308 1.6210673076923077 Q 0.7654957932692308 1.6005865384615385 0.781649639423077 1.582125 Q 0.797803485576923 1.5636634615384617 0.8182842548076923 1.5518365384615385 Q 0.8387650240384615 1.5400096153846154 0.8635727163461538 1.5400096153846154 Q 0.8687650240384616 1.5400096153846154 0.8745342548076923 1.5417403846153848 Q 0.8803034855769231 1.5434711538461539 0.8843419471153846 1.5452019230769232 Q 0.8929957932692307 1.5492403846153846 0.8973227163461539 1.5527019230769232 Q 0.9016496394230769 1.5561634615384616 0.9016496394230769 1.5613557692307694 Q 0.9016496394230769 1.5665480769230768 0.8993419471153846 1.5717403846153846 L 0.887803485576923 1.6000096153846155 L 0.8837650240384616 1.6000096153846155 L 0.8681881009615384 1.5936634615384615 Q 0.8520342548076922 1.5873173076923077 0.8306881009615384 1.5873173076923077 Q 0.7989573317307692 1.5873173076923077 0.7882842548076923 1.6072211538461538 Q 0.7776111778846153 1.627125 0.7776111778846153 1.6669326923076924 L 0.7776111778846153 1.7130865384615386 L 0.8537650240384616 1.7130865384615386 L 0.8537650240384616 1.7402019230769232 L 0.7776111778846153 1.7402019230769232 L 0.7776111778846153 1.9461634615384615 L 0.8185727163461538 1.963471153846154 L 0.8185727163461538 1.9727019230769232 L 0.6951111778846154 1.9727019230769232 Z M 1.042372107872596 1.9727019230769232 L 1.042372107872596 1.963471153846154 L 1.0787182617187498 1.9450096153846155 L 1.0787182617187498 1.6057788461538463 L 1.0441028771033654 1.5757788461538462 L 1.0441028771033654 1.5717403846153846 L 1.1214105694110577 1.5400096153846154 L 1.124872107872596 1.5400096153846154 L 1.124872107872596 1.9450096153846155 L 1.1612182617187499 1.963471153846154 L 1.1612182617187499 1.9727019230769232 L 1.042372107872596 1.9727019230769232 Z M 1.3481097881610578 1.978471153846154 Q 1.3100328650841346 1.978471153846154 1.2814751727764422 1.9605865384615386 Q 1.25291748046875 1.9427019230769231 1.2370520958533653 1.912125 Q 1.2211867112379806 1.881548076923077 1.2211867112379806 1.8428942307692309 Q 1.2211867112379806 1.8042403846153847 1.2370520958533653 1.7736634615384617 Q 1.25291748046875 1.7430865384615386 1.2814751727764422 1.725201923076923 Q 1.3100328650841346 1.7073173076923078 1.3481097881610578 1.7073173076923078 Q 1.3861867112379807 1.7073173076923078 1.414744403545673 1.725201923076923 Q 1.4433020958533653 1.7430865384615386 1.45916748046875 1.7736634615384617 Q 1.4750328650841347 1.8042403846153847 1.4750328650841347 1.8428942307692309 Q 1.4750328650841347 1.881548076923077 1.45916748046875 1.912125 Q 1.4433020958533653 1.9427019230769231 1.414744403545673 1.9605865384615386 Q 1.3861867112379807 1.978471153846154 1.3481097881610578 1.978471153846154 Z M 1.3561867112379806 1.9536634615384616 Q 1.3792636343149038 1.9536634615384616 1.3942636343149037 1.9392403846153847 Q 1.4092636343149039 1.9248173076923079 1.4161867112379807 1.9020288461538462 Q 1.4231097881610577 1.8792403846153847 1.4231097881610577 1.8544326923076924 Q 1.4231097881610577 1.8238557692307693 1.414744403545673 1.7955865384615386 Q 1.4063790189302885 1.7673173076923077 1.3882059420072115 1.7494326923076924 Q 1.3700328650841347 1.7315480769230769 1.3411867112379807 1.7315480769230769 Q 1.3175328650841345 1.7315480769230769 1.3025328650841346 1.745971153846154 Q 1.2875328650841347 1.7603942307692308 1.2803213266225961 1.7828942307692308 Q 1.2731097881610576 1.8053942307692308 1.2731097881610576 1.8307788461538461 Q 1.2731097881610576 1.8613557692307694 1.2817636343149037 1.889625 Q 1.29041748046875 1.9178942307692308 1.3088790189302884 1.9357788461538463 Q 1.3273405573918269 1.9536634615384616 1.3561867112379806 1.9536634615384616 Z M 1.6619108698918268 1.978471153846154 Q 1.6059493314302884 1.978471153846154 1.573641639122596 1.9444326923076924 Q 1.5413339468149037 1.9103942307692308 1.5413339468149037 1.8544326923076924 Q 1.5413339468149037 1.8111634615384615 1.5589301006610576 1.7779903846153846 Q 1.5765262545072114 1.7448173076923077 1.6065262545072114 1.7260673076923077 Q 1.6365262545072115 1.7073173076923078 1.6740262545072115 1.7073173076923078 Q 1.6971031775841345 1.7073173076923078 1.7190262545072115 1.7151057692307692 Q 1.7409493314302884 1.7228942307692308 1.75248779296875 1.7355865384615385 Q 1.761718562199519 1.746548076923077 1.761718562199519 1.7528942307692308 Q 1.761718562199519 1.7609711538461539 1.7542185621995192 1.7667403846153846 L 1.7322954852764423 1.7852019230769232 L 1.7282570237379806 1.7852019230769232 L 1.708641639122596 1.7586634615384615 Q 1.69998779296875 1.747125 1.6870070237379806 1.7399134615384617 Q 1.6740262545072115 1.7327019230769232 1.65498779296875 1.7327019230769232 Q 1.6232570237379806 1.7327019230769232 1.6050839468149039 1.757798076923077 Q 1.5869108698918268 1.7828942307692308 1.5869108698918268 1.8278942307692307 Q 1.5869108698918268 1.8555865384615386 1.596141639122596 1.8801057692307692 Q 1.6053724083533654 1.904625 1.6270070237379808 1.9199134615384617 Q 1.648641639122596 1.935201923076923 1.686718562199519 1.935201923076923 Q 1.7184493314302884 1.935201923076923 1.761141639122596 1.912125 L 1.7628724083533653 1.912125 L 1.7628724083533653 1.9178942307692308 Q 1.7496031775841345 1.9427019230769231 1.7233531775841344 1.9605865384615386 Q 1.6971031775841345 1.978471153846154 1.6619108698918268 1.978471153846154 Z M 1.8845702185997597 1.978471153846154 Q 1.857454833984375 1.978471153846154 1.8395702185997596 1.9626057692307692 Q 1.8216856032151443 1.9467403846153848 1.8216856032151443 1.9184711538461539 Q 1.8216856032151443 1.8902019230769231 1.8427432955228364 1.8694326923076923 Q 1.8638009878305288 1.8486634615384616 1.9134163724459134 1.8371250000000001 L 1.9682240647536058 1.8244326923076923 L 1.9682240647536058 1.7823173076923078 Q 1.9682240647536058 1.7627019230769232 1.9523586801382211 1.7485673076923078 Q 1.9364932955228364 1.7344326923076925 1.9163009878305288 1.7344326923076925 Q 1.894377910907452 1.7344326923076925 1.8857240647536058 1.7462596153846155 Q 1.8770702185997596 1.7580865384615385 1.8770702185997596 1.777701923076923 L 1.8770702185997596 1.7938557692307693 L 1.8741856032151443 1.7967403846153847 L 1.8441856032151442 1.7967403846153847 Q 1.8355317570612981 1.7967403846153847 1.8323586801382212 1.7938557692307693 Q 1.8291856032151443 1.790971153846154 1.8291856032151443 1.7805865384615385 Q 1.8291856032151443 1.767894230769231 1.8366856032151442 1.754625 Q 1.8441856032151442 1.7413557692307693 1.8597625262920674 1.7315480769230769 Q 1.8759163724459136 1.7211634615384617 1.8935125262920673 1.7142403846153846 Q 1.911108680138221 1.7073173076923078 1.931300987830529 1.7073173076923078 Q 1.9514932955228366 1.7073173076923078 1.9708202185997596 1.7130865384615386 Q 1.9901471416766827 1.7188557692307693 2.0022625262920672 1.7324134615384617 Q 2.0143779109074518 1.745971153846154 2.0143779109074518 1.770201923076923 L 2.0143779109074518 1.934048076923077 Q 2.0184163724459134 1.9380865384615384 2.0259163724459137 1.9409711538461538 Q 2.0334163724459136 1.9438557692307694 2.046685603215144 1.9438557692307694 L 2.068608680138221 1.9438557692307694 L 2.0703394493689906 1.9450096153846155 L 2.0703394493689906 1.9467403846153848 Q 2.0634163724459134 1.9594326923076923 2.0498586801382213 1.9689519230769232 Q 2.0363009878305287 1.978471153846154 2.0166856032151443 1.978471153846154 Q 1.9988009878305288 1.978471153846154 1.9875509878305289 1.9689519230769232 Q 1.9763009878305289 1.9594326923076923 1.9716856032151442 1.9438557692307694 L 1.9682240647536058 1.9438557692307694 Q 1.9532240647536059 1.9588557692307693 1.9310125262920672 1.9686634615384617 Q 1.9088009878305288 1.978471153846154 1.8845702185997597 1.978471153846154 Z M 1.8666856032151442 1.9069326923076924 Q 1.8666856032151442 1.9427019230769231 1.909954833984375 1.9427019230769231 Q 1.9238009878305289 1.9427019230769231 1.9373586801382212 1.9398173076923078 Q 1.9509163724459135 1.9369326923076924 1.9682240647536058 1.9294326923076923 L 1.9682240647536058 1.844048076923077 Q 1.9220702185997596 1.852701923076923 1.900724064753606 1.862221153846154 Q 1.879377910907452 1.8717403846153846 1.8730317570612982 1.882701923076923 Q 1.8666856032151442 1.8936634615384615 1.8666856032151442 1.9069326923076924 Z M 2.202427509014423 1.978471153846154 Q 2.1770428936298076 1.978471153846154 2.1585813551682693 1.963471153846154 Q 2.1401198167067306 1.9484711538461539 2.1401198167067306 1.9213557692307692 L 2.1401198167067306 1.7402019230769232 L 2.0928121243990385 1.7402019230769232 L 2.0928121243990385 1.7367403846153846 L 2.1418505859375 1.7130865384615386 L 2.1828121243990384 1.6496250000000001 L 2.186273662860577 1.6496250000000001 L 2.186273662860577 1.7130865384615386 L 2.2624275090144232 1.7130865384615386 L 2.2624275090144232 1.7402019230769232 L 2.186273662860577 1.7402019230769232 L 2.186273662860577 1.911548076923077 Q 2.186273662860577 1.926548076923077 2.1995428936298076 1.933471153846154 Q 2.2128121243990386 1.9403942307692308 2.230696739783654 1.9403942307692308 Q 2.2416582782451924 1.9403942307692308 2.2511775090144233 1.9392403846153847 Q 2.2606967397836537 1.9380865384615384 2.267619816706731 1.9363557692307694 L 2.2693505859375 1.9363557692307694 L 2.2693505859375 1.942125 Q 2.2635813551682693 1.955394230769231 2.2465621243990386 1.9669326923076924 Q 2.229542893629808 1.978471153846154 2.202427509014423 1.978471153846154 Z M 2.4481637807992787 1.978471153846154 Q 2.4100868577223555 1.978471153846154 2.3815291654146633 1.9605865384615386 Q 2.352971473106971 1.9427019230769231 2.3371060884915864 1.912125 Q 2.3212407038762017 1.881548076923077 2.3212407038762017 1.8428942307692309 Q 2.3212407038762017 1.8042403846153847 2.3371060884915864 1.7736634615384617 Q 2.352971473106971 1.7430865384615386 2.3815291654146633 1.725201923076923 Q 2.4100868577223555 1.7073173076923078 2.4481637807992787 1.7073173076923078 Q 2.4862407038762018 1.7073173076923078 2.514798396183894 1.725201923076923 Q 2.5433560884915867 1.7430865384615386 2.5592214731069713 1.7736634615384617 Q 2.5750868577223556 1.8042403846153847 2.5750868577223556 1.8428942307692309 Q 2.5750868577223556 1.881548076923077 2.5592214731069713 1.912125 Q 2.5433560884915867 1.9427019230769231 2.514798396183894 1.9605865384615386 Q 2.4862407038762018 1.978471153846154 2.4481637807992787 1.978471153846154 Z M 2.456240703876202 1.9536634615384616 Q 2.479317626953125 1.9536634615384616 2.494317626953125 1.9392403846153847 Q 2.5093176269531248 1.9248173076923079 2.516240703876202 1.9020288461538462 Q 2.523163780799279 1.8792403846153847 2.523163780799279 1.8544326923076924 Q 2.523163780799279 1.8238557692307693 2.514798396183894 1.7955865384615386 Q 2.5064330115685096 1.7673173076923077 2.488259934645433 1.7494326923076924 Q 2.4700868577223556 1.7315480769230769 2.441240703876202 1.7315480769230769 Q 2.417586857722356 1.7315480769230769 2.4025868577223557 1.745971153846154 Q 2.3875868577223556 1.7603942307692308 2.3803753192608172 1.7828942307692308 Q 2.373163780799279 1.8053942307692308 2.373163780799279 1.8307788461538461 Q 2.373163780799279 1.8613557692307694 2.381817626953125 1.889625 Q 2.390471473106971 1.9178942307692308 2.4089330115685095 1.9357788461538463 Q 2.427394550030048 1.9536634615384616 2.456240703876202 1.9536634615384616 Z M 2.639689565805288 1.9727019230769232 L 2.639689565805288 1.963471153846154 L 2.676035719651442 1.9450096153846155 L 2.676035719651442 1.7730865384615386 L 2.6414203350360577 1.7430865384615386 L 2.6414203350360577 1.739048076923077 L 2.712958796574519 1.7073173076923078 L 2.7164203350360574 1.7073173076923078 L 2.721612642728365 1.7563557692307694 L 2.7239203350360577 1.7563557692307694 Q 2.7371895658052883 1.7350096153846155 2.7484395658052883 1.7243365384615386 Q 2.7596895658052882 1.7136634615384616 2.7694972581129806 1.7104903846153847 Q 2.779304950420673 1.7073173076923078 2.7891126427283655 1.7073173076923078 Q 2.7937280273437497 1.7073173076923078 2.7997857196514424 1.709048076923077 Q 2.8058434119591347 1.7107788461538462 2.809881873497596 1.7125096153846155 Q 2.81622802734375 1.7153942307692307 2.8217087965745193 1.7194326923076924 Q 2.8271895658052886 1.723471153846154 2.8271895658052886 1.7286634615384615 Q 2.8271895658052886 1.7338557692307692 2.824881873497596 1.739048076923077 L 2.8133434119591345 1.7673173076923077 L 2.809304950420673 1.7673173076923077 L 2.787381873497596 1.7586634615384615 Q 2.781035719651442 1.7557788461538462 2.77497802734375 1.7552019230769231 Q 2.7689203350360576 1.754625 2.763151104266827 1.754625 Q 2.7389203350360574 1.754625 2.722189565805288 1.7794326923076924 L 2.722189565805288 1.9450096153846155 L 2.763151104266827 1.963471153846154 L 2.763151104266827 1.9727019230769232 L 2.639689565805288 1.9727019230769232 Z" fill="#3682ae" fill-rule="nonzero"></path></g><g clip-path="url(&quot;#SvgjsClipPath1000&quot;)"><path d=" M 0 -4.0646865775265315 L 3.814686577526531 -4.0646865775265315 L 3.814686577526531 -0.25000000000000044 L 0 -0.25000000000000044 Z" fill="url(#gradient-17bca5ec-7175-4e5c-9064-eb2f9e38153a)" transform="matrix(1,0,0,1,0,0)" fill-rule="nonzero" mask="url(#maskedText)"></path></g></g><defs><clipPath id="SvgjsClipPath1000"><path d=" M 0 -4.0646865775265315 h 3.814686577526531 v 3.814686577526531 h -3.814686577526531 Z"></path></clipPath><linearGradient id="gradient-17bca5ec-7175-4e5c-9064-eb2f9e38153a" x1="0" x2="1" y1="0" y2="1"><stop stop-color="#3682ae" offset="0"></stop><stop stop-color="#102036" offset="1"></stop></linearGradient><mask id="maskedText"><path d=" M 0 -4.0646865775265315 L 3.814686577526531 -4.0646865775265315 L 3.814686577526531 -0.25000000000000044 L 0 -0.25000000000000044 Z" fill="#ffffff" transform="matrix(1,0,0,1,0,0)" fill-rule="nonzero"></path><path d=" M 2.077687697458271 -3.111014933144898 C 2.1721466031874996 -3.111014933144898 2.260701827308651 -3.083767171876852 2.343353369821726 -3.0292716493407585 C 2.426004912334801 -2.9747761268046653 2.4927619274415154 -2.901207171380939 2.5436244151418688 -2.8085647830695804 C 2.5944869028422226 -2.715922394758222 2.6199181466923998 -2.6123809019396447 2.6199181466923998 -2.4979403046138486 C 2.6199181466923998 -2.3853162247059227 2.5944869028422226 -2.2826829905962804 2.5436244151418688 -2.1900406022849217 C 2.4927619274415154 -2.0973982139735634 2.426004912334801 -2.0233751291953697 2.343353369821726 -1.9679713479503416 C 2.260701827308651 -1.9125675667053135 2.1721466031874996 -1.8848656760827993 2.077687697458271 -1.8848656760827993 L 1.576328890126213 -1.8848656760827993 L 1.6035766513942595 -1.9339116463652832 L 1.6035766513942595 -1.3698829881167176 C 1.6035766513942595 -1.3226535352521034 1.5890445120513013 -1.2831442814134357 1.559980233365385 -1.2513552266007146 C 1.5309159546794686 -1.2195661717879935 1.4927690889042031 -1.203671644381633 1.4455396360395891 -1.203671644381633 C 1.4001267005928446 -1.203671644381633 1.3628880935265142 -1.2195661717879935 1.3338238148405979 -1.2513552266007146 C 1.3047595361546813 -1.2831442814134357 1.290227396811723 -1.3226535352521034 1.290227396811723 -1.3698829881167176 L 1.290227396811723 -2.9448035894098137 C 1.290227396811723 -2.992033042274428 1.3061219242180837 -3.031542296113096 1.3379109790308048 -3.063331350925817 C 1.369700033843526 -3.0951204057385375 1.4092092876821936 -3.111014933144898 1.4564387405468078 -3.111014933144898 L 2.077687697458271 -3.111014933144898 Z M 2.077687697458271 -2.1954901545385312 C 2.1122015283977973 -2.1954901545385312 2.145807100628388 -2.2100222938814893 2.178504414150044 -2.2390865725674054 C 2.2112017276716998 -2.2681508512533224 2.2384494889397466 -2.30584358767412 2.260247697954184 -2.3521647818297993 C 2.282045906968621 -2.3984859759854786 2.29294501147584 -2.4470778169134952 2.29294501147584 -2.4979403046138486 C 2.29294501147584 -2.550619309732072 2.282045906968621 -2.5996652800145563 2.260247697954184 -2.645078215461301 C 2.2384494889397466 -2.690491150908045 2.2112017276716998 -2.727275628619908 2.178504414150044 -2.7554316485968897 C 2.145807100628388 -2.7835876685738716 2.1122015283977973 -2.797665678562362 2.077687697458271 -2.797665678562362 L 1.5708793378726036 -2.797665678562362 L 1.6035766513942595 -2.8467116488448463 L 1.6035766513942595 -2.151893736509656 L 1.5736041139994081 -2.1954901545385312 L 2.077687697458271 -2.1954901545385312 Z" fill="NA" transform="matrix(1,0,0,1,0,0)" fill-rule="nonzero"></path></mask></defs></svg>